<?xml version="1.0" encoding="utf-8"?>
<!-- Generator: Adobe Illustrator 27.9.0, SVG Export Plug-In . SVG Version: 6.00 Build 0)  -->
<svg version="1.1" id="Layer_2_00000176762897651900607840000018292739159055624847_"
	 xmlns="http://www.w3.org/2000/svg" xmlns:xlink="http://www.w3.org/1999/xlink" x="0px" y="0px" viewBox="0 0 44.9 44"
	 style="enable-background:new 0 0 44.9 44;" xml:space="preserve">
<style type="text/css">
	.st0{fill:#002B60;}
	.st1{fill:#89BC47;}
</style>
<g id="Layer_2-2">
	<g id="Icon">
		<path class="st0" d="M22.5,44c-7.3,0-12.2-1.5-15.3-3c-1.5-0.7-2.6-1.5-3.3-2c-0.7-0.5-1-0.9-1-0.9C1.6,36.8,1,35.8,0.5,34
			c0,0-0.2-0.5-0.3-1.3c-0.1-0.9-0.2-2.2-0.1-3.9c0.3-3.4,1.4-8.4,5.1-14.7c4.5-7.8,9.1-11.3,12-12.8C10.9,7.7,9,22.5,10.7,28.5
			c0.6,1.9,1.6,2.7,1.7,2.8c0.2,0.2,2.9,3,10,3s10-3,10-3c0.7-0.7,1-1.2,1.2-2.2c0,0,0.9-2.7-1-7.3c5.8,8.6,8.3,20.6-6.4,22.1
			C25.1,44,23.8,44,22.5,44"/>
		<path class="st1" d="M23.4,11.7c-0.8-0.1-1.4-0.1-2.2,0.1c0,0-3.9,0.7-7.6,7.2c-0.7,1.2-1.3,2.4-1.6,3.5
			C12.1,12.7,16.9-1,24.8,0.1c0,0,0.5,0.1,1.3,0.4c0.8,0.3,2,0.9,3.4,1.8c2.8,1.9,6.6,5.4,10.2,11.8c3.7,6.3,4.8,11.3,5.1,14.7
			c0.1,1.7,0,3-0.1,3.9c-0.1,0.9-0.3,1.3-0.3,1.3c-0.5,1.8-1.1,2.8-2.4,4.2c0,0-0.1,0.1-0.3,0.3c-0.2,0.2-0.6,0.5-1.1,0.9
			c-0.9,0.7-2.2,1.5-4.1,2.2c3-3.2,3.3-7.7,2-12.3c-2.2-7.7-9.3-16.2-14.4-17.5C23.9,11.8,23.4,11.8,23.4,11.7"/>
	</g>
</g>
</svg>
