<?xml version="1.0" encoding="utf-8"?>
<!-- Generator: Adobe Illustrator 27.9.0, SVG Export Plug-In . SVG Version: 6.00 Build 0)  -->
<svg version="1.1" id="Layer_2_00000007396726591932849630000016899367360984919730_"
	 xmlns="http://www.w3.org/2000/svg" xmlns:xlink="http://www.w3.org/1999/xlink" x="0px" y="0px" viewBox="0 0 282.1 61.2"
	 style="enable-background:new 0 0 282.1 61.2;" xml:space="preserve">
<style type="text/css">
	.st0{fill:#FFFFFF;}
	.st1{fill:#89BC47;}
</style>
<g>
	<g>
		<path class="st0" d="M89,42.3V25.4h-3.1v-4H89v-1.7c0-4.4,2.6-6.5,6.8-6.5c1.3,0,2.4,0.2,3.7,0.6V18c-0.9-0.2-1.8-0.5-2.7-0.5
			c-2,0-2.7,0.7-2.7,2.7v1.3h4.7v4H94v16.9L89,42.3L89,42.3z"/>
		<path class="st0" d="M101.5,42.3V21.4h5v1.4c1.2-1,2.7-1.7,4.5-1.7c0.7,0,1.4,0.2,2.1,0.4v4.7c-0.9-0.2-1.6-0.4-2.5-0.4
			c-2,0-3.1,0.6-4.1,1.4v15.2H101.5L101.5,42.3z"/>
		<path class="st0" d="M119.2,19.3c-1.6,0-2.8-1.3-2.8-2.8s1.2-2.8,2.8-2.8s2.8,1.3,2.8,2.8C122.1,18,120.8,19.3,119.2,19.3
			 M116.7,21.4h5.1v20.9h-5.1V21.4z"/>
		<path class="st0" d="M135.9,42.6c-6.4,0-10-4.1-10-10.4s3.2-11.1,9.9-11.1c2.1,0,3.5,0.3,5.4,1.1v4.3c-1.8-0.8-3-1.2-5-1.2
			c-3.5,0-5.1,2.4-5.1,7c0,4.2,2,6.2,5.3,6.2c2.2,0,3.2-0.3,5.1-1.4v4.4C139.6,42.3,137.9,42.6,135.9,42.6"/>
		<path class="st0" d="M159,42.6c-1.7,0-2.9-0.7-3.6-1.9c-1.1,1-3,1.9-5.1,1.9c-4,0-6.7-2.3-6.7-6.1c0-4.5,3.9-6.6,9.5-6.6
			c0.5,0,1,0,1.5,0v-0.8c0-2.6-1-3.9-3.6-3.9c-2.1,0-3.6,0.6-5.5,1.4v-4.4c2-0.8,4-1.3,6.2-1.3c4.8,0,7.9,2.5,7.9,7.4v8.8
			c0,1,0.4,1.2,1,1.2c0.2,0,0.3,0,0.5,0l0.5-0.1l0.2,0V42C160.8,42.4,160.2,42.6,159,42.6 M151.5,38.6c1.3,0,2.4-0.5,3-1.1v-4
			c-0.3,0-0.8,0-1.1,0c-3.4,0-4.8,0.9-4.8,2.7C148.7,37.7,149.7,38.6,151.5,38.6"/>
		<path class="st0" d="M164.9,42.3V21.4h5v1.2c1.1-0.7,2.8-1.5,5-1.5c5.2,0,7,3.3,7,7.5v13.7h-5.1v-13c0-2.6-0.7-3.9-3.3-3.9
			c-1.4,0-2.7,0.6-3.6,1.2v15.8H164.9L164.9,42.3z"/>
		<path class="st0" d="M228.5,42.6c-1.7,0-2.9-0.7-3.6-1.9c-1.1,1-3,1.9-5.1,1.9c-4,0-6.7-2.3-6.7-6.1c0-4.5,3.9-6.6,9.5-6.6
			c0.5,0,1,0,1.5,0v-0.8c0-2.6-1-3.9-3.6-3.9c-2.1,0-3.6,0.6-5.5,1.4v-4.4c2-0.8,4-1.3,6.2-1.3c4.8,0,7.9,2.5,7.9,7.4v8.8
			c0,1,0.4,1.2,1,1.2c0.2,0,0.3,0,0.5,0l0.5-0.1l0.2,0V42C230.3,42.4,229.7,42.6,228.5,42.6 M221,38.6c1.3,0,2.4-0.5,3-1.1v-4
			c-0.3,0-0.8,0-1.1,0c-3.4,0-4.8,0.9-4.8,2.7C218.2,37.7,219.1,38.6,221,38.6"/>
		<path class="st0" d="M234.4,42.3V21.4h5v1.2c1.1-0.7,2.8-1.5,5-1.5c5.2,0,7,3.3,7,7.5v13.7h-5.1v-13c0-2.6-0.7-3.9-3.3-3.9
			c-1.4,0-2.7,0.6-3.6,1.2v15.8H234.4L234.4,42.3z"/>
		<path class="st0" d="M271.8,42.5c-2.1,0-3.7-0.7-5.4-3l-4.8-6.4v9.2h-5.1V13.6h5.1v15.7l6.4-7.9h5.8l-7.9,9.5l5,6.4
			c0.6,0.8,1,1,1.7,1c0.2,0,1-0.1,1-0.1v4C272.9,42.3,272.4,42.5,271.8,42.5"/>
		<path class="st0" d="M200.2,42.3h-8.6v-29h8.3c6,0,9.3,3,9.3,7.5c0,2.9-1.5,5-3.5,6l-0.6,0.3l0.6,0.2c2.5,1,4.4,3.2,4.4,6.5
			C210.1,39,206.3,42.3,200.2,42.3 M199.5,38c3.3,0,5-1.5,5-4.4s-1.5-4.5-4.9-4.5h-2.8V38L199.5,38L199.5,38z M199.3,25.2
			c3.2,0,4.6-1.4,4.6-4c0-2.2-1.3-3.7-4.5-3.7h-2.6v7.7L199.3,25.2L199.3,25.2z"/>
	</g>
	<path class="st0" d="M77.5,32l-3.8-13l-3.9,13H77.5z M66.7,42.3h-5.3l9.7-29h5.8l9.4,29h-5.7l-1.7-5.9H68.5L66.7,42.3L66.7,42.3z"
		/>
	<g id="Icon">
		<path class="st0" d="M30.1,51.4c-7.3,0-12.2-1.5-15.3-3c-1.5-0.7-2.6-1.5-3.3-2c-0.7-0.5-1-0.9-1-0.9c-1.2-1.3-1.8-2.4-2.4-4.2
			c0,0-0.2-0.5-0.3-1.3c-0.1-0.9-0.2-2.2-0.1-3.9c0.3-3.4,1.4-8.4,5.1-14.7c4.5-7.8,9.1-11.3,12-12.9c-6.2,6.5-8.1,21.3-6.4,27.3
			c0.6,1.9,1.6,2.7,1.7,2.8c0.2,0.2,2.9,3,10,3s10-3,10-3c0.7-0.7,1-1.2,1.2-2.2c0,0,0.9-2.7-1-7.3c5.8,8.6,8.3,20.6-6.4,22.1
			C32.8,51.3,31.5,51.4,30.1,51.4"/>
		<path class="st1" d="M31.1,19.1c-0.8-0.2-1.4-0.1-2.2,0.1c0,0-3.9,0.7-7.6,7.2c-0.7,1.2-1.3,2.4-1.7,3.5
			C19.7,20,24.5,6.4,32.5,7.4c0,0,0.5,0.1,1.3,0.4c0.8,0.3,2,0.9,3.4,1.9c2.8,1.9,6.5,5.4,10.2,11.8c3.7,6.3,4.8,11.3,5.1,14.7
			c0.1,1.7,0,3-0.1,3.9c-0.1,0.9-0.3,1.3-0.3,1.3c-0.5,1.8-1.1,2.8-2.4,4.2c0,0-0.1,0.1-0.3,0.3c-0.2,0.2-0.6,0.5-1.1,0.9
			c-0.9,0.7-2.2,1.5-4.1,2.2c3-3.2,3.3-7.7,2-12.3c-2.2-7.7-9.3-16.2-14.4-17.5C31.6,19.2,31.1,19.1,31.1,19.1"/>
	</g>
</g>
</svg>
